<svg width="345" height="51" viewBox="0 0 345 51" fill="none" xmlns="http://www.w3.org/2000/svg">
<path d="M50.2857 32C50.2857 32.8533 50.1333 33.661 49.8286 34.4229C49.5543 35.1848 49.1429 35.8705 48.5943 36.48C48.0762 37.0895 47.4667 37.5924 46.7657 37.9886C46.0648 38.3848 45.3029 38.6438 44.48 38.7657L50.2857 44.5714V50.2857H36.5714L25.1429 38.8571H13.7143V50.2857H0V0H43.4286C44.3733 0 45.2571 0.182858 46.08 0.548573C46.9333 0.914285 47.6648 1.4019 48.2743 2.01143C48.8838 2.62095 49.3714 3.35238 49.7371 4.20572C50.1029 5.02857 50.2857 5.91238 50.2857 6.85714V32ZM36.5714 13.7143H13.7143V25.1429H36.5714V13.7143Z" fill="#CF0000"/>
<path d="M105.161 18.2857V32H68.5893V36.5714H105.161V45.2857C105.161 48.0471 102.922 50.2857 100.161 50.2857H59.875C57.1136 50.2857 54.875 48.0471 54.875 45.2857V4.99999C54.875 2.23857 57.1136 0 59.875 0H100.161C102.922 0 105.161 2.23858 105.161 5V13.7143H68.5893V18.2857H105.161Z" fill="#CF0000"/>
<path d="M153.179 0C154.123 0 155.007 0.182858 155.83 0.548573C156.683 0.914285 157.415 1.4019 158.024 2.01143C158.634 2.62095 159.121 3.35238 159.487 4.20572C159.853 5.02857 160.036 5.91238 160.036 6.85714V43.4286C160.036 44.3733 159.853 45.2724 159.487 46.1257C159.121 46.9486 158.634 47.6648 158.024 48.2743C157.415 48.8838 156.683 49.3714 155.83 49.7371C155.007 50.1029 154.123 50.2857 153.179 50.2857H109.75V0H153.179ZM123.464 36.5714H141.321C144.083 36.5714 146.321 34.3329 146.321 31.5714V18.7143C146.321 15.9529 144.083 13.7143 141.321 13.7143H123.464V36.5714Z" fill="#CF0000"/>
<path d="M171 50.2857C168.239 50.2857 166 48.0471 166 45.2857V4.99999C166 2.23857 168.239 0 171 0H179.714V36.5714H216.286V45.2857C216.286 48.0471 214.047 50.2857 211.286 50.2857H171Z" fill="black"/>
<path d="M220.875 0H234.589V50.2857H220.875V0Z" fill="black"/>
<path d="M289.473 18.2857V32H252.902V50.2857H244.188C241.426 50.2857 239.188 48.0471 239.188 45.2857V4.99999C239.188 2.23857 241.426 0 244.188 0H289.473V13.7143H252.902V18.2857H289.473Z" fill="black"/>
<path d="M326.062 50.2857H312.348V13.7143H294.062V0H326.215L344.681 13.7143H326.062V50.2857Z" fill="black"/>
<path d="M327 0H345V13.5L327 0Z" fill="#CF0000"/>
</svg>
